<?xml version="1.0" encoding="utf-8"?>
<!-- Generated by IcoMoon.io -->
<!DOCTYPE svg PUBLIC "-//W3C//DTD SVG 1.1//EN" "http://www.w3.org/Graphics/SVG/1.1/DTD/svg11.dtd">
<svg version="1.1" xmlns="http://www.w3.org/2000/svg" xmlns:xlink="http://www.w3.org/1999/xlink" width="16" height="16" viewBox="0 0 16 16">
<path d="M4.998 14.5c0-0.828 0.672-1.5 1.5-1.5s1.5 0.672 1.5 1.5c0 0.828-0.672 1.5-1.5 1.5s-1.5-0.672-1.5-1.5zM12.998 9h-6.203l-0.249-1h6.504c0.348 0 0.641-0.208 0.805-0.504l0.069 0.004 2.078-5.884-0.004-0.616c0-0.553-0.447-1-1-1h-14c-0.553 0-1 0.447-1 1s0.447 1 1 1h2.079l1.954 7.835c-0.010 0.056-0.033 0.106-0.033 0.165 0 0.553 0.447 1 1 1h7c0.553 0 1-0.447 1-1s-0.447-1-1-1zM5.049 2h8.845l-1.414 4h-6.433l-0.998-4zM10.998 14.5c0-0.828 0.672-1.5 1.5-1.5s1.5 0.672 1.5 1.5c0 0.828-0.672 1.5-1.5 1.5s-1.5-0.672-1.5-1.5z" fill="#444444"></path>
</svg>
