<?xml version="1.0" encoding="utf-8"?>
<!-- Generated by IcoMoon.io -->
<!DOCTYPE svg PUBLIC "-//W3C//DTD SVG 1.1//EN" "http://www.w3.org/Graphics/SVG/1.1/DTD/svg11.dtd">
<svg version="1.1" xmlns="http://www.w3.org/2000/svg" xmlns:xlink="http://www.w3.org/1999/xlink" width="16" height="16" viewBox="0 0 16 16">
<path d="M13.999 12c-0.485 0-0.914 0.195-1.261 0.482l-3.048-2.176c0.194-0.399 0.31-0.836 0.31-1.306 0-0.646-0.211-1.244-0.559-1.732l3.566-3.568c0.296 0.174 0.625 0.301 0.992 0.301 1.105 0 2-0.894 2-2s-0.895-2-2-2-2 0.894-2 2c0 0.369 0.129 0.696 0.301 0.992l-3.566 3.568c-0.492-0.351-1.086-0.561-1.734-0.561-1.144 0-2.129 0.651-2.635 1.596l-2.408-0.804c-0.097-0.449-0.478-0.791-0.957-0.791-0.552 0-1 0.447-1 1s0.448 1 1 1c0.252 0 0.477-0.101 0.652-0.256l2.394 0.799c-0.024 0.15-0.047 0.301-0.047 0.457 0 1.656 1.344 3 3 3 0.824 0 1.572-0.334 2.115-0.873l3.029 2.162c-0.086 0.223-0.145 0.459-0.145 0.711 0 1.104 0.895 2 2 2s2-0.896 2-2-0.895-2-2-2z" fill="#444444"></path>
</svg>
